<svg xmlns="http://www.w3.org/2000/svg" viewBox="0 0 900 62" width="900" height="62" role="img" aria-label="Contact &amp; Portfolio">
<style>
@keyframes sweep { 0% { transform:translateX(-40%) } 100% { transform:translateX(190%) } }
@keyframes bob   { 0%,100% { transform:translateY(0) } 50% { transform:translateY(-6px) } }
@keyframes tw    { 0%,100% { opacity:.55 } 50% { opacity:1 } }
@keyframes ping  { 0%,100% { transform:scale(1); opacity:1 } 55% { transform:scale(1.7); opacity:.45 } }
@keyframes halo  { 0% { transform:scale(.55); opacity:0 } 35% { opacity:.5 } 100% { transform:scale(1.9); opacity:0 } }
@keyframes wig   { 0%,72%,100% { transform:rotate(0) } 80% { transform:rotate(-9deg) } 90% { transform:rotate(9deg) } }
@keyframes spin  { from { transform:rotate(0) } to { transform:rotate(360deg) } }
@keyframes glow  { 0%,100% { opacity:.85 } 50% { opacity:1 } }
.sweep { animation: sweep 4.6s ease-in-out infinite }
.bob   { transform-box: fill-box; transform-origin: center; animation: bob 3s ease-in-out infinite }
.tw    { animation: tw 3s ease-in-out infinite }
.ping  { transform-box: fill-box; transform-origin: center; animation: ping 2.2s ease-in-out infinite }
.halo  { transform-box: fill-box; transform-origin: center; animation: halo 2.4s ease-out infinite }
.wig   { transform-box: fill-box; transform-origin: center; animation: wig 5s ease-in-out infinite }
.spin  { transform-box: fill-box; transform-origin: center; animation: spin 9s linear infinite }
.glow  { animation: glow 2.8s ease-in-out infinite }
</style><defs><linearGradient id="gl" x1="0" y1="0" x2="1" y2="0">
  <stop offset="0%" stop-color="#FFFFFF" stop-opacity="0"/>
  <stop offset="50%" stop-color="#FFFFFF" stop-opacity="0.9"/>
  <stop offset="100%" stop-color="#FFFFFF" stop-opacity="0"/>
</linearGradient><clipPath id="ln"><rect x="311.515" y="31" width="554.485" height="2" rx="1"/></clipPath></defs><g transform="translate(22,32)"><circle r="15" fill="#FFBC00" opacity="0.18" class="halo"/><g class="wig"><rect x="-10" y="-7" width="20" height="14" rx="2.5" fill="none" stroke="#FFBC00" stroke-width="2.2"/><path d="M-10 -5 l10 7 l10 -7" fill="none" stroke="#FFBC00" stroke-width="2.2" stroke-linejoin="round"/></g></g><path d="M3.51 -10.233C3.51 -11.7090001373291 3.6765001373291013 -13.009499862670898 4.0095 -14.1345C4.342499862670898 -15.259500137329102 4.810500137329101 -16.204500137329102 5.4135 -16.9695C6.016499862670899 -17.734499862670898 6.7410001373291015 -18.3149998626709 7.587 -18.711C8.432999862670899 -19.107000137329102 9.369 -19.305 10.395 -19.305C11.366999999999999 -19.305 12.312 -19.215000137329103 13.23 -19.035C14.148 -18.854999862670898 14.939999862670899 -18.638999862670897 15.606 -18.387L15.984 -19.521C15.354000137329102 -19.863000137329102 14.561999862670898 -20.164499862670898 13.608 -20.4255C12.654000137329101 -20.6865001373291 11.583 -20.817 10.395 -20.817C9.063000137329102 -20.817 7.857 -20.5829998626709 6.777 -20.115C5.697 -19.6470001373291 4.774499862670899 -18.9585001373291 4.0095 -18.0495C3.2445001373291014 -17.140499862670897 2.6549998626708984 -16.029000137329103 2.241 -14.715C1.8270001373291016 -13.400999862670899 1.6199999999999999 -11.907 1.6199999999999999 -10.233C1.6199999999999999 -8.469000137329102 1.8449998626708983 -6.9254999999999995 2.295 -5.6025C2.7450001373291015 -4.2795 3.3660001373291015 -3.1725 4.158 -2.2815C4.949999862670898 -1.3905 5.881499862670898 -0.7200001373291015 6.9525 -0.27C8.023500137329101 0.18000013732910156 9.171000137329102 0.40499999999999997 10.395 0.40499999999999997C11.637 0.40499999999999997 12.770999999999999 0.27 13.797 0.0C14.823 -0.27 15.741 -0.648 16.551 -1.134L16.119 -2.241C15.795 -2.0970001373291014 15.412499862670899 -1.9529998626708984 14.9715 -1.809C14.530500137329101 -1.6650001373291015 14.0580001373291 -1.539 13.554 -1.431C13.049999862670898 -1.323 12.528 -1.2374998626708984 11.988 -1.1744999999999999C11.448 -1.1115001373291016 10.916999862670899 -1.0889998626708983 10.395 -1.107C9.477 -1.1250001373291016 8.604000137329102 -1.3140001373291015 7.776 -1.674C6.9479998626708985 -2.0339998626708984 6.214500137329101 -2.5874998626708985 5.5755 -3.3345C4.936499862670899 -4.081500137329101 4.432500137329101 -5.026500137329101 4.0635 -6.1695C3.6944998626708982 -7.312499862670898 3.51 -8.667 3.51 -10.233ZM32.751 -7.398C32.751 -8.820000137329101 32.5665001373291 -10.025999862670899 32.1975 -11.016C31.8284998626709 -12.006000137329101 31.328999862670898 -12.806999862670898 30.698999999999998 -13.419C30.069000137329102 -14.031000137329102 29.3355 -14.4765001373291 28.4985 -14.7555C27.6615 -15.034499862670899 26.784 -15.174 25.866 -15.174C24.948 -15.174 24.0705 -15.034499862670899 23.2335 -14.7555C22.3965 -14.4765001373291 21.662999862670897 -14.031000137329102 21.033 -13.419C20.4030001373291 -12.806999862670898 19.9035001373291 -12.006000137329101 19.5345 -11.016C19.1654998626709 -10.025999862670899 18.981 -8.820000137329101 18.981 -7.398C18.981 -5.975999862670898 19.1654998626709 -4.770000137329101 19.5345 -3.78C19.9035001373291 -2.7899998626708986 20.4030001373291 -1.9845 21.033 -1.3635C21.662999862670897 -0.7424999999999999 22.3919998626709 -0.29249986267089845 23.22 -0.0135C24.0480001373291 0.2654998626708984 24.929999862670897 0.40499999999999997 25.866 0.40499999999999997C26.802000137329102 0.40499999999999997 27.6839998626709 0.2654998626708984 28.512 -0.0135C29.3400001373291 -0.29249986267089845 30.069000137329102 -0.7424999999999999 30.698999999999998 -1.3635C31.328999862670898 -1.9845 31.8284998626709 -2.7899998626708986 32.1975 -3.78C32.5665001373291 -4.770000137329101 32.751 -5.975999862670898 32.751 -7.398ZM25.866 -1.08C25.128000137329103 -1.08 24.4485 -1.2060001373291016 23.8275 -1.458C23.2065 -1.7099998626708983 22.675499862670897 -2.0970001373291014 22.2345 -2.6189999999999998C21.7935001373291 -3.1409998626708986 21.4515 -3.7980001373291015 21.2085 -4.59C20.9655 -5.381999862670899 20.844 -6.318 20.844 -7.398C20.844 -8.478 20.9655 -9.4140001373291 21.2085 -10.206C21.4515 -10.997999862670898 21.7935001373291 -11.6505 22.2345 -12.163499999999999C22.675499862670897 -12.676499999999999 23.2065 -13.059000137329102 23.8275 -13.311C24.4485 -13.562999862670898 25.128000137329103 -13.689 25.866 -13.689C26.603999862670896 -13.689 27.2835 -13.562999862670898 27.9045 -13.311C28.5255 -13.059000137329102 29.056500137329103 -12.676499999999999 29.497500000000002 -12.163499999999999C29.9384998626709 -11.6505 30.2805 -10.997999862670898 30.5235 -10.206C30.7665 -9.4140001373291 30.887999999999998 -8.478 30.887999999999998 -7.398C30.887999999999998 -6.318 30.7665 -5.381999862670899 30.5235 -4.59C30.2805 -3.7980001373291015 29.9384998626709 -3.1409998626708986 29.497500000000002 -2.6189999999999998C29.056500137329103 -2.0970001373291014 28.5255 -1.7099998626708983 27.9045 -1.458C27.2835 -1.2060001373291016 26.603999862670896 -1.08 25.866 -1.08ZM37.854 0.0V-12.852C38.0340001373291 -12.924000137329102 38.2814998626709 -13.014 38.5965 -13.122C38.9115001373291 -13.23 39.257999999999996 -13.3245 39.635999999999996 -13.4055C40.013999999999996 -13.4865 40.419 -13.558500137329101 40.851 -13.6215C41.283 -13.684499862670899 41.714999999999996 -13.716 42.147 -13.716C43.4789998626709 -13.716 44.4239998626709 -13.414499862670898 44.982 -12.8115C45.5400001373291 -12.208500137329102 45.819 -11.186999862670898 45.819 -9.747V0.0H47.682V-10.017C47.682 -13.454999862670899 45.927 -15.174 42.417 -15.174C41.3189998626709 -15.174 40.265999862670895 -15.0525 39.257999999999996 -14.8095C38.2500001373291 -14.5665 37.1609998626709 -14.202 35.991 -13.716V0.0ZM54.513000000000005 -19.332 52.650000000000006 -18.522V-14.202H50.247V-12.717H52.650000000000006V-4.239C52.650000000000006 -2.673 52.951500137329106 -1.5074998626708984 53.554500000000004 -0.7424999999999999C54.1574998626709 0.022499862670898436 55.134 0.40499999999999997 56.484 0.40499999999999997C56.664000137329104 0.40499999999999997 56.8709998626709 0.3915 57.105000000000004 0.3645C57.3390001373291 0.3375 57.5729998626709 0.297 57.807 0.243C58.04100013732911 0.189 58.2614998626709 0.13049986267089844 58.468500000000006 0.0675C58.6755001373291 0.004500137329101562 58.8419998626709 -0.06299986267089844 58.968 -0.135L58.779 -1.242C58.527000137329104 -1.1520001373291016 58.2074998626709 -1.08 57.8205 -1.026C57.433500137329105 -0.972 57.042000137329104 -0.945 56.646 -0.945C55.908000137329104 -0.945 55.368000137329105 -1.2285 55.026 -1.7954999999999999C54.6839998626709 -2.3625 54.513000000000005 -3.1679998626708983 54.513000000000005 -4.212V-12.717H58.428000000000004V-14.202H54.513000000000005ZM70.632 -7.614V-1.539C70.4880001373291 -1.5030001373291015 70.2675 -1.458 69.9705 -1.404C69.6735 -1.35 69.336 -1.3005001373291016 68.958 -1.2555C68.58 -1.2104998626708985 68.175 -1.1699998626708985 67.743 -1.134C67.311 -1.0980001373291015 66.879 -1.08 66.447 -1.08C65.853 -1.08 65.3354998626709 -1.1699998626708985 64.8945 -1.35C64.4535001373291 -1.5300001373291015 64.0799998626709 -1.7730001373291016 63.774 -2.079C63.4680001373291 -2.3849998626708984 63.238500137329105 -2.7450001373291015 63.0855 -3.159C62.9324998626709 -3.5729998626708985 62.856 -4.023 62.856 -4.509C62.856 -5.5889999999999995 63.1710001373291 -6.430500137329101 63.801 -7.0335C64.4309998626709 -7.636499862670898 65.3489998626709 -7.973999862670898 66.555 -8.046C66.825 -8.064000137329101 67.1309998626709 -8.064000137329101 67.473 -8.046C67.81500013732911 -8.027999862670898 68.175 -8.000999862670898 68.553 -7.965C68.931 -7.929000137329101 69.3000001373291 -7.879499862670898 69.66 -7.8165C70.0199998626709 -7.753500137329102 70.3439998626709 -7.686000137329102 70.632 -7.614ZM70.659 -10.611V-8.91C70.389 -8.982000137329102 70.065 -9.049500137329101 69.687 -9.1125C69.309 -9.175499862670899 68.9220001373291 -9.234 68.526 -9.288C68.1299998626709 -9.342 67.73849986267089 -9.387000137329101 67.3515 -9.423C66.9645001373291 -9.458999862670899 66.6179998626709 -9.468000137329101 66.312 -9.45C64.638 -9.3779998626709 63.3330001373291 -8.918999862670898 62.397 -8.073C61.460999862670896 -7.227000137329101 60.993 -6.039000137329102 60.993 -4.509C60.993 -3.7889998626708983 61.1099998626709 -3.1274998626708985 61.344 -2.5245C61.5780001373291 -1.9215001373291016 61.915500137329104 -1.404 62.3565 -0.972C62.7974998626709 -0.54 63.342 -0.20249999999999999 63.99 0.0405C64.638 0.2835 65.3759998626709 0.40499999999999997 66.20400000000001 0.40499999999999997C67.662 0.40499999999999997 68.9445 0.28800013732910157 70.0515 0.054C71.1585 -0.18000013732910156 71.97300013732911 -0.3869998626708984 72.495 -0.567V-9.72C72.495 -11.699999862670898 72.0540001373291 -13.103999862670898 71.172 -13.932C70.2899998626709 -14.7600001373291 68.9129998626709 -15.174 67.041 -15.174C66.4110001373291 -15.174 65.718 -15.093 64.962 -14.931C64.206 -14.769 63.4589998626709 -14.58 62.721000000000004 -14.363999999999999L63.018 -13.176C63.7019998626709 -13.319999862670898 64.3229998626709 -13.441499862670899 64.881 -13.5405C65.4390001373291 -13.639500137329101 66.0870001373291 -13.689 66.825 -13.689C68.229 -13.689 69.2190001373291 -13.437000137329102 69.795 -12.933C70.3709998626709 -12.428999862670898 70.659 -11.655000137329102 70.659 -10.611ZM77.598 -7.398C77.598 -8.478 77.74199986267091 -9.4140001373291 78.03 -10.206C78.31800013732911 -10.997999862670898 78.70049986267091 -11.6505 79.17750000000001 -12.163499999999999C79.65450013732911 -12.676499999999999 80.1989998626709 -13.059000137329102 80.811 -13.311C81.42300013732911 -13.562999862670898 82.0440001373291 -13.689 82.674 -13.689C84.186 -13.689 85.563 -13.481999862670898 86.805 -13.068L87.21000000000001 -14.175C86.58000013732911 -14.463000137329102 85.9094998626709 -14.7015 85.19850000000001 -14.8905C84.4875001373291 -15.0795 83.646 -15.174 82.674 -15.174C81.72000013732911 -15.174 80.8245 -15.020999862670898 79.98750000000001 -14.715C79.15050000000001 -14.409000137329102 78.4169998626709 -13.936500137329102 77.787 -13.2975C77.1570001373291 -12.658499862670899 76.65750013732911 -11.848499862670899 76.2885 -10.8675C75.9194998626709 -9.8865001373291 75.735 -8.729999862670898 75.735 -7.398C75.735 -6.066000137329102 75.9150001373291 -4.9094998626708986 76.275 -3.9285C76.63499986267091 -2.9475001373291017 77.1300001373291 -2.1375001373291016 77.76 -1.4985C78.3899998626709 -0.8594998626708984 79.1235 -0.38250013732910154 79.96050000000001 -0.0675C80.7975 0.24750013732910156 81.702 0.40499999999999997 82.674 0.40499999999999997C83.754 0.40499999999999997 84.6855 0.297 85.4685 0.081C86.25150000000001 -0.135 87.021 -0.46799986267089844 87.777 -0.918L87.29100000000001 -2.106C86.73299986267091 -1.782 86.0625 -1.5209998626708985 85.27950000000001 -1.323C84.4965 -1.1250001373291016 83.6279998626709 -1.0440001373291015 82.674 -1.08C82.02600000000001 -1.0980001373291015 81.39600013732911 -1.2330001373291015 80.784 -1.4849999999999999C80.1719998626709 -1.7369998626708985 79.62750013732911 -2.1195 79.15050000000001 -2.6325C78.67349986267091 -3.1455 78.29549986267091 -3.7980001373291015 78.01650000000001 -4.59C77.7375001373291 -5.381999862670899 77.598 -6.318 77.598 -7.398ZM93.528 -19.332 91.665 -18.522V-14.202H89.262V-12.717H91.665V-4.239C91.665 -2.673 91.9665001373291 -1.5074998626708984 92.5695 -0.7424999999999999C93.1724998626709 0.022499862670898436 94.149 0.40499999999999997 95.49900000000001 0.40499999999999997C95.6790001373291 0.40499999999999997 95.8859998626709 0.3915 96.12 0.3645C96.35400013732911 0.3375 96.5879998626709 0.297 96.822 0.243C97.05600013732911 0.189 97.2764998626709 0.13049986267089844 97.4835 0.0675C97.69050013732911 0.004500137329101562 97.8569998626709 -0.06299986267089844 97.983 -0.135L97.79400000000001 -1.242C97.5420001373291 -1.1520001373291016 97.2224998626709 -1.08 96.8355 -1.026C96.4485001373291 -0.972 96.05700013732911 -0.945 95.661 -0.945C94.9230001373291 -0.945 94.3830001373291 -1.2285 94.041 -1.7954999999999999C93.6989998626709 -2.3625 93.528 -3.1679998626708983 93.528 -4.212V-12.717H97.443V-14.202H93.528ZM123.417 -10.125H121.797C121.7610001373291 -9.782999862670898 121.7070001373291 -9.418499862670899 121.635 -9.0315C121.5629998626709 -8.644500137329102 121.46400013732911 -8.257499862670898 121.33800000000001 -7.8705C121.21199986267091 -7.483500137329101 121.0769998626709 -7.101 120.933 -6.723C120.78900013732911 -6.345 120.636 -5.994 120.474 -5.67C120.4019998626709 -5.526000137329102 120.33000013732911 -5.391000137329102 120.25800000000001 -5.265C120.1859998626709 -5.138999862670898 120.1140001373291 -5.003999862670899 120.042 -4.86L119.88 -5.103L114.048 -13.176C112.914 -14.7600001373291 112.34700000000001 -15.965999862670898 112.34700000000001 -16.794C112.34700000000001 -17.639999862670898 112.6305 -18.274499862670897 113.1975 -18.6975C113.7645 -19.120500137329103 114.561 -19.332 115.587 -19.332C115.87500013732911 -19.332 116.1945 -19.309500137329103 116.5455 -19.264499999999998C116.8965 -19.219499862670897 117.23400000000001 -19.169999999999998 117.558 -19.116C117.882 -19.062 118.179 -18.9990001373291 118.449 -18.927C118.71900000000001 -18.854999862670898 118.92600013732911 -18.791999999999998 119.07000000000001 -18.738L119.394 -19.899C119.25000013732911 -19.971000137329103 119.0384998626709 -20.061 118.7595 -20.169C118.4805001373291 -20.277 118.16550000000001 -20.3760001373291 117.81450000000001 -20.466C117.46350000000001 -20.555999862670898 117.0900001373291 -20.636999862670898 116.694 -20.709C116.2979998626709 -20.7810001373291 115.9290001373291 -20.817 115.587 -20.817C113.85900000000001 -20.817 112.5810001373291 -20.4570001373291 111.753 -19.737C110.9249998626709 -19.016999862670897 110.51100000000001 -18.036 110.51100000000001 -16.794C110.51100000000001 -16.110000137329102 110.7 -15.4035 111.078 -14.6745C111.456 -13.9455 111.9330001373291 -13.184999862670898 112.509 -12.393L112.563 -12.285C112.0589998626709 -11.907 111.54150013732911 -11.4615 111.01050000000001 -10.9485C110.4794998626709 -10.4355 109.998 -9.873000137329102 109.566 -9.261C109.134 -8.648999862670898 108.783 -7.996500137329101 108.513 -7.3035C108.24300000000001 -6.610499862670898 108.108 -5.886 108.108 -5.13C108.108 -3.456 108.64800000000001 -2.1149998626708983 109.72800000000001 -1.107C110.808 -0.09900013732910157 112.34700000000001 0.40499999999999997 114.345 0.40499999999999997C115.6050001373291 0.40499999999999997 116.70299986267091 0.17099986267089842 117.63900000000001 -0.297C118.57500013732911 -0.7649998626708985 119.394 -1.404 120.096 -2.214C120.8160001373291 -1.4399998626708985 121.51800013732911 -0.837 122.202 -0.40499999999999997C122.8859998626709 0.027 123.50699986267091 0.297 124.065 0.40499999999999997L124.659 -0.864C124.08300013732911 -1.0440001373291015 123.50250013732911 -1.3589998626708983 122.9175 -1.809C122.3324998626709 -2.2590001373291013 121.7249998626709 -2.8439998626708984 121.095 -3.564C121.2750001373291 -3.834 121.4414998626709 -4.122000137329102 121.59450000000001 -4.428C121.7475001373291 -4.733999862670898 121.89600013732911 -5.040000137329102 122.04 -5.346C122.364 -6.066000137329102 122.6564998626709 -6.839999862670898 122.9175 -7.668C123.17850013732911 -8.496000137329101 123.3449998626709 -9.315 123.417 -10.125ZM113.427 -11.124 118.881 -3.726C118.9169998626709 -3.6900001373291014 118.9485 -3.645 118.97550000000001 -3.5909999999999997C119.0025 -3.537 119.0340001373291 -3.4919998626708986 119.07000000000001 -3.456C118.476 -2.7359998626708983 117.7920001373291 -2.16 117.018 -1.728C116.2439998626709 -1.296 115.3529998626709 -1.08 114.345 -1.08C112.97699986267091 -1.08 111.9015 -1.4445 111.1185 -2.1734999999999998C110.3355 -2.9025 109.944 -3.888 109.944 -5.13C109.944 -5.796000137329101 110.0474998626709 -6.426 110.25450000000001 -7.02C110.46150013732911 -7.614 110.7315001373291 -8.162999862670897 111.06450000000001 -8.667C111.3974998626709 -9.171000137329102 111.77100013732911 -9.6255 112.185 -10.0305C112.59899986267091 -10.4355 113.0130001373291 -10.8 113.427 -11.124ZM137.34900000000002 -10.044V-18.711L138.294 -18.9C138.6539998626709 -18.9720001373291 139.0275001373291 -19.039500137329103 139.4145 -19.1025C139.8014998626709 -19.1654998626709 140.184 -19.215000137329103 140.562 -19.251C140.94 -19.2869998626709 141.2820001373291 -19.305 141.588 -19.305C143.2800001373291 -19.305 144.5129998626709 -18.873 145.287 -18.009C146.0610001373291 -17.145 146.448 -15.956999999999999 146.448 -14.445C146.448 -12.933 146.0565 -11.745 145.2735 -10.881C144.4905 -10.017 143.262 -9.584999999999999 141.588 -9.584999999999999C141.2820001373291 -9.584999999999999 140.94 -9.5985 140.562 -9.6255C140.184 -9.6525 139.8014998626709 -9.688499862670898 139.4145 -9.7335C139.0275001373291 -9.778500137329102 138.6539998626709 -9.828 138.294 -9.882C137.93400013732912 -9.936 137.619 -9.99 137.34900000000002 -10.044ZM137.34900000000002 0.0V-8.505C137.673 -8.451 138.0329998626709 -8.401500137329101 138.429 -8.3565C138.8250001373291 -8.311499862670898 139.2255 -8.266500137329102 139.6305 -8.2215C140.0355 -8.176499862670898 140.4315001373291 -8.1405 140.8185 -8.1135C141.2054998626709 -8.0865 141.55200013732912 -8.073 141.858 -8.073C142.88400000000001 -8.073 143.80200000000002 -8.2215 144.612 -8.5185C145.422 -8.8155 146.1015001373291 -9.242999862670898 146.6505 -9.801C147.1994998626709 -10.359000137329101 147.6179998626709 -11.0295 147.906 -11.8125C148.1940001373291 -12.5955 148.338 -13.472999999999999 148.338 -14.445C148.338 -15.417 148.1940001373291 -16.2945 147.906 -17.0775C147.6179998626709 -17.8605 147.1994998626709 -18.5309998626709 146.6505 -19.089C146.1015001373291 -19.6470001373291 145.4265001373291 -20.0745 144.62550000000002 -20.3715C143.8244998626709 -20.668499999999998 142.9020001373291 -20.817 141.858 -20.817C140.79600013732912 -20.817 139.7295001373291 -20.709 138.6585 -20.493C137.5874998626709 -20.277 136.52099986267092 -20.052000137329102 135.459 -19.818V0.0ZM164.80800000000002 -7.398C164.80800000000002 -8.820000137329101 164.62350013732913 -10.025999862670899 164.2545 -11.016C163.8854998626709 -12.006000137329101 163.38599986267093 -12.806999862670898 162.75600000000003 -13.419C162.12600013732913 -14.031000137329102 161.3925 -14.4765001373291 160.55550000000002 -14.7555C159.7185 -15.034499862670899 158.841 -15.174 157.923 -15.174C157.00500000000002 -15.174 156.12750000000003 -15.034499862670899 155.2905 -14.7555C154.45350000000002 -14.4765001373291 153.7199998626709 -14.031000137329102 153.09 -13.419C152.46000013732913 -12.806999862670898 151.96050013732912 -12.006000137329101 151.59150000000002 -11.016C151.2224998626709 -10.025999862670899 151.038 -8.820000137329101 151.038 -7.398C151.038 -5.975999862670898 151.2224998626709 -4.770000137329101 151.59150000000002 -3.78C151.96050013732912 -2.7899998626708986 152.46000013732913 -1.9845 153.09 -1.3635C153.7199998626709 -0.7424999999999999 154.44899986267092 -0.29249986267089845 155.27700000000002 -0.0135C156.1050001373291 0.2654998626708984 156.98699986267093 0.40499999999999997 157.923 0.40499999999999997C158.85900013732913 0.40499999999999997 159.74099986267092 0.2654998626708984 160.56900000000002 -0.0135C161.39700013732912 -0.29249986267089845 162.12600013732913 -0.7424999999999999 162.75600000000003 -1.3635C163.38599986267093 -1.9845 163.8854998626709 -2.7899998626708986 164.2545 -3.78C164.62350013732913 -4.770000137329101 164.80800000000002 -5.975999862670898 164.80800000000002 -7.398ZM157.923 -1.08C157.18500013732913 -1.08 156.5055 -1.2060001373291016 155.8845 -1.458C155.26350000000002 -1.7099998626708983 154.73249986267092 -2.0970001373291014 154.2915 -2.6189999999999998C153.8505001373291 -3.1409998626708986 153.50850000000003 -3.7980001373291015 153.2655 -4.59C153.0225 -5.381999862670899 152.901 -6.318 152.901 -7.398C152.901 -8.478 153.0225 -9.4140001373291 153.2655 -10.206C153.50850000000003 -10.997999862670898 153.8505001373291 -11.6505 154.2915 -12.163499999999999C154.73249986267092 -12.676499999999999 155.26350000000002 -13.059000137329102 155.8845 -13.311C156.5055 -13.562999862670898 157.18500013732913 -13.689 157.923 -13.689C158.6609998626709 -13.689 159.34050000000002 -13.562999862670898 159.96150000000003 -13.311C160.5825 -13.059000137329102 161.1135001373291 -12.676499999999999 161.55450000000002 -12.163499999999999C161.99549986267093 -11.6505 162.3375 -10.997999862670898 162.58050000000003 -10.206C162.82350000000002 -9.4140001373291 162.94500000000002 -8.478 162.94500000000002 -7.398C162.94500000000002 -6.318 162.82350000000002 -5.381999862670899 162.58050000000003 -4.59C162.3375 -3.7980001373291015 161.99549986267093 -3.1409998626708986 161.55450000000002 -2.6189999999999998C161.1135001373291 -2.0970001373291014 160.5825 -1.7099998626708983 159.96150000000003 -1.458C159.34050000000002 -1.2060001373291016 158.6609998626709 -1.08 157.923 -1.08ZM168.048 0.0H169.911V-12.231C170.43299986267093 -12.590999862670898 171.17100013732912 -12.924000137329102 172.12500000000003 -13.23C173.0789998626709 -13.535999862670899 174.17700000000002 -13.689 175.419 -13.689V-15.174C174.64499986267091 -15.174 173.95200013732912 -15.111000137329102 173.34 -14.985C172.7279998626709 -14.858999862670899 172.1835001373291 -14.7015 171.7065 -14.5125C171.2294998626709 -14.3235 170.8244998626709 -14.116499862670898 170.4915 -13.8915C170.15850013732913 -13.666500137329102 169.88400000000001 -13.464000137329101 169.668 -13.284L169.39800000000002 -14.769H168.048ZM180.9 -19.332 179.037 -18.522V-14.202H176.63400000000001V-12.717H179.037V-4.239C179.037 -2.673 179.3385001373291 -1.5074998626708984 179.9415 -0.7424999999999999C180.5444998626709 0.022499862670898436 181.52100000000002 0.40499999999999997 182.871 0.40499999999999997C183.0510001373291 0.40499999999999997 183.2579998626709 0.3915 183.492 0.3645C183.7260001373291 0.3375 183.9599998626709 0.297 184.19400000000002 0.243C184.4280001373291 0.189 184.6484998626709 0.13049986267089844 184.8555 0.0675C185.0625001373291 0.004500137329101562 185.2289998626709 -0.06299986267089844 185.355 -0.135L185.166 -1.242C184.9140001373291 -1.1520001373291016 184.5944998626709 -1.08 184.2075 -1.026C183.8205001373291 -0.972 183.4290001373291 -0.945 183.03300000000002 -0.945C182.2950001373291 -0.945 181.7550001373291 -1.2285 181.413 -1.7954999999999999C181.0709998626709 -2.3625 180.9 -3.1679998626708983 180.9 -4.212V-12.717H184.815V-14.202H180.9ZM186.705 -12.798H188.703V0.0H190.566V-12.798H193.968V-14.283H190.566V-16.929C190.566 -17.469 190.6245001373291 -17.9190001373291 190.7415 -18.279C190.8584998626709 -18.638999862670897 191.01600013732912 -18.927 191.214 -19.143C191.4119998626709 -19.358999999999998 191.6370001373291 -19.5120001373291 191.889 -19.602C192.1409998626709 -19.691999862670897 192.4109998626709 -19.737 192.699 -19.737C193.131 -19.737 193.5225 -19.71 193.8735 -19.656C194.2245 -19.602 194.5530001373291 -19.5299998626709 194.859 -19.44L195.237 -20.52C194.9489998626709 -20.6639998626709 194.5709998626709 -20.817 194.103 -20.979C193.63500013732911 -21.141 193.1129998626709 -21.222 192.537 -21.222C191.3309998626709 -21.222 190.3905 -20.871 189.7155 -20.169C189.0405 -19.467 188.703 -18.414 188.703 -17.01V-14.283H186.705ZM210.897 -7.398C210.897 -8.820000137329101 210.7125001373291 -10.025999862670899 210.34349999999998 -11.016C209.97449986267088 -12.006000137329101 209.47499986267087 -12.806999862670898 208.845 -13.419C208.2150001373291 -14.031000137329102 207.48149999999998 -14.4765001373291 206.6445 -14.7555C205.80749999999998 -15.034499862670899 204.92999999999998 -15.174 204.012 -15.174C203.094 -15.174 202.2165 -15.034499862670899 201.37949999999998 -14.7555C200.5425 -14.4765001373291 199.80899986267087 -14.031000137329102 199.17899999999997 -13.419C198.5490001373291 -12.806999862670898 198.0495001373291 -12.006000137329101 197.6805 -11.016C197.31149986267087 -10.025999862670899 197.12699999999998 -8.820000137329101 197.12699999999998 -7.398C197.12699999999998 -5.975999862670898 197.31149986267087 -4.770000137329101 197.6805 -3.78C198.0495001373291 -2.7899998626708986 198.5490001373291 -1.9845 199.17899999999997 -1.3635C199.80899986267087 -0.7424999999999999 200.5379998626709 -0.29249986267089845 201.36599999999999 -0.0135C202.19400013732908 0.2654998626708984 203.0759998626709 0.40499999999999997 204.012 0.40499999999999997C204.94800013732907 0.40499999999999997 205.8299998626709 0.2654998626708984 206.658 -0.0135C207.48600013732909 -0.29249986267089845 208.2150001373291 -0.7424999999999999 208.845 -1.3635C209.47499986267087 -1.9845 209.97449986267088 -2.7899998626708986 210.34349999999998 -3.78C210.7125001373291 -4.770000137329101 210.897 -5.975999862670898 210.897 -7.398ZM204.012 -1.08C203.2740001373291 -1.08 202.59449999999998 -1.2060001373291016 201.9735 -1.458C201.3525 -1.7099998626708983 200.8214998626709 -2.0970001373291014 200.38049999999998 -2.6189999999999998C199.93950013732908 -3.1409998626708986 199.5975 -3.7980001373291015 199.35449999999997 -4.59C199.11149999999998 -5.381999862670899 198.98999999999998 -6.318 198.98999999999998 -7.398C198.98999999999998 -8.478 199.11149999999998 -9.4140001373291 199.35449999999997 -10.206C199.5975 -10.997999862670898 199.93950013732908 -11.6505 200.38049999999998 -12.163499999999999C200.8214998626709 -12.676499999999999 201.3525 -13.059000137329102 201.9735 -13.311C202.59449999999998 -13.562999862670898 203.2740001373291 -13.689 204.012 -13.689C204.74999986267088 -13.689 205.4295 -13.562999862670898 206.0505 -13.311C206.67149999999998 -13.059000137329102 207.20250013732908 -12.676499999999999 207.6435 -12.163499999999999C208.0844998626709 -11.6505 208.42649999999998 -10.997999862670898 208.6695 -10.206C208.9125 -9.4140001373291 209.034 -8.478 209.034 -7.398C209.034 -6.318 208.9125 -5.381999862670899 208.6695 -4.59C208.42649999999998 -3.7980001373291015 208.0844998626709 -3.1409998626708986 207.6435 -2.6189999999999998C207.20250013732908 -2.0970001373291014 206.67149999999998 -1.7099998626708983 206.0505 -1.458C205.4295 -1.2060001373291016 204.74999986267088 -1.08 204.012 -1.08ZM217.647 0.567 218.18699999999998 -0.675C217.97099999999998 -0.7470001373291015 217.7504998626709 -0.8550001373291015 217.5255 -0.999C217.3005001373291 -1.1429998626708984 217.09349999999998 -1.3275001373291015 216.90449999999998 -1.5525C216.7155 -1.7774998626708984 216.56249986267088 -2.0565001373291016 216.44549999999998 -2.3895C216.3285001373291 -2.7224998626708983 216.26999999999998 -3.132 216.26999999999998 -3.618V-20.951999999999998H214.40699999999998V-3.834C214.40699999999998 -3.0960001373291015 214.4969998626709 -2.4659998626708983 214.677 -1.944C214.8570001373291 -1.4220001373291016 215.1000001373291 -0.9900001373291015 215.40599999999998 -0.648C215.7119998626709 -0.30599986267089846 216.05850013732908 -0.035999862670898435 216.44549999999998 0.162C216.8324998626709 0.35999986267089845 217.2330001373291 0.4949998626708984 217.647 0.567ZM222.885 -14.769H221.022V0.0H222.885ZM220.45499999999998 -19.575C220.45499999999998 -19.107000137329102 220.5989998626709 -18.738 220.887 -18.468C221.1750001373291 -18.198 221.535 -18.063 221.96699999999998 -18.063C222.399 -18.063 222.7589998626709 -18.198 223.047 -18.468C223.3350001373291 -18.738 223.47899999999998 -19.107000137329102 223.47899999999998 -19.575C223.47899999999998 -20.042999862670897 223.3350001373291 -20.412 223.047 -20.682C222.7589998626709 -20.951999999999998 222.399 -21.087 221.96699999999998 -21.087C221.535 -21.087 221.1750001373291 -20.951999999999998 220.887 -20.682C220.5989998626709 -20.412 220.45499999999998 -20.042999862670897 220.45499999999998 -19.575ZM240.165 -7.398C240.165 -8.820000137329101 239.9805001373291 -10.025999862670899 239.61149999999998 -11.016C239.24249986267088 -12.006000137329101 238.7429998626709 -12.806999862670898 238.113 -13.419C237.4830001373291 -14.031000137329102 236.74949999999998 -14.4765001373291 235.9125 -14.7555C235.07549999999998 -15.034499862670899 234.19799999999998 -15.174 233.27999999999997 -15.174C232.362 -15.174 231.4845 -15.034499862670899 230.64749999999998 -14.7555C229.8105 -14.4765001373291 229.07699986267087 -14.031000137329102 228.44699999999997 -13.419C227.8170001373291 -12.806999862670898 227.3175001373291 -12.006000137329101 226.9485 -11.016C226.57949986267087 -10.025999862670899 226.39499999999998 -8.820000137329101 226.39499999999998 -7.398C226.39499999999998 -5.975999862670898 226.57949986267087 -4.770000137329101 226.9485 -3.78C227.3175001373291 -2.7899998626708986 227.8170001373291 -1.9845 228.44699999999997 -1.3635C229.07699986267087 -0.7424999999999999 229.8059998626709 -0.29249986267089845 230.634 -0.0135C231.46200013732908 0.2654998626708984 232.3439998626709 0.40499999999999997 233.27999999999997 0.40499999999999997C234.2160001373291 0.40499999999999997 235.0979998626709 0.2654998626708984 235.926 -0.0135C236.7540001373291 -0.29249986267089845 237.4830001373291 -0.7424999999999999 238.113 -1.3635C238.7429998626709 -1.9845 239.24249986267088 -2.7899998626708986 239.61149999999998 -3.78C239.9805001373291 -4.770000137329101 240.165 -5.975999862670898 240.165 -7.398ZM233.27999999999997 -1.08C232.5420001373291 -1.08 231.86249999999998 -1.2060001373291016 231.24149999999997 -1.458C230.6205 -1.7099998626708983 230.0894998626709 -2.0970001373291014 229.64849999999998 -2.6189999999999998C229.20750013732908 -3.1409998626708986 228.8655 -3.7980001373291015 228.62249999999997 -4.59C228.37949999999998 -5.381999862670899 228.25799999999998 -6.318 228.25799999999998 -7.398C228.25799999999998 -8.478 228.37949999999998 -9.4140001373291 228.62249999999997 -10.206C228.8655 -10.997999862670898 229.20750013732908 -11.6505 229.64849999999998 -12.163499999999999C230.0894998626709 -12.676499999999999 230.6205 -13.059000137329102 231.24149999999997 -13.311C231.86249999999998 -13.562999862670898 232.5420001373291 -13.689 233.27999999999997 -13.689C234.01799986267088 -13.689 234.6975 -13.562999862670898 235.3185 -13.311C235.93949999999998 -13.059000137329102 236.47050013732908 -12.676499999999999 236.9115 -12.163499999999999C237.3524998626709 -11.6505 237.69449999999998 -10.997999862670898 237.9375 -10.206C238.1805 -9.4140001373291 238.302 -8.478 238.302 -7.398C238.302 -6.318 238.1805 -5.381999862670899 237.9375 -4.59C237.69449999999998 -3.7980001373291015 237.3524998626709 -3.1409998626708986 236.9115 -2.6189999999999998C236.47050013732908 -2.0970001373291014 235.93949999999998 -1.7099998626708983 235.3185 -1.458C234.6975 -1.2060001373291016 234.01799986267088 -1.08 233.27999999999997 -1.08Z" transform="translate(52,40)" fill="#3E3A34"/><rect x="311.515" y="31" width="554.485" height="2" rx="1" fill="#E6E1D8"/><g clip-path="url(#ln)"><rect class="sweep" x="151.515" y="31" width="150" height="2" fill="#FFBC00" opacity="0.9"/></g><circle cx="878" cy="32" r="7" fill="#FFBC00" opacity="0.25" class="halo"/><g class="ping"><circle cx="878" cy="32" r="4" fill="#FFBC00"/></g></svg>